<?xml version="1.0" encoding="UTF-8"?><svg xmlns="http://www.w3.org/2000/svg" xmlns:xlink="http://www.w3.org/1999/xlink" fill-opacity="1" color-rendering="auto" color-interpolation="auto" text-rendering="auto" stroke="black" stroke-linecap="square" width="914" stroke-miterlimit="10" shape-rendering="auto" stroke-opacity="1" fill="black" stroke-dasharray="none" font-weight="normal" stroke-width="1" height="636" font-family="'Dialog'" font-style="normal" stroke-linejoin="miter" font-size="12px" stroke-dashoffset="0" image-rendering="auto">
  <!--Generated by ySVG 2.5-->
  <defs id="genericDefs"/>
  <g>
    <defs id="defs1">
      <clipPath clipPathUnits="userSpaceOnUse" id="clipPath1">
        <path d="M0 0 L914 0 L914 636 L0 636 L0 0 Z"/>
      </clipPath>
      <clipPath clipPathUnits="userSpaceOnUse" id="clipPath2">
        <path d="M-3156 1023 L-2242 1023 L-2242 1659 L-3156 1659 L-3156 1023 Z"/>
      </clipPath>
    </defs>
    <g fill="white" text-rendering="geometricPrecision" shape-rendering="geometricPrecision" transform="translate(3156,-1023)" stroke="white">
      <rect x="-3156" width="914" height="636" y="1023" clip-path="url(#clipPath2)" stroke="none"/>
    </g>
    <g fill="rgb(255,204,0)" text-rendering="geometricPrecision" shape-rendering="geometricPrecision" transform="matrix(1,0,0,1,3156,-1023)" stroke="rgb(255,204,0)">
      <rect x="-2812.014" width="126" height="39" y="1075.5858" clip-path="url(#clipPath2)" stroke="none"/>
    </g>
    <g text-rendering="geometricPrecision" stroke-miterlimit="1.45" shape-rendering="geometricPrecision" font-family="sans-serif" transform="matrix(1,0,0,1,3156,-1023)" stroke-linecap="butt">
      <text x="-2801.9944" xml:space="preserve" y="1099.621" clip-path="url(#clipPath2)" stroke="none">DetectorFinalState</text>
      <rect fill="none" x="-2812.014" width="126" height="39" y="1075.5858" clip-path="url(#clipPath2)"/>
    </g>
    <g fill="rgb(255,204,0)" text-rendering="geometricPrecision" shape-rendering="geometricPrecision" transform="matrix(1,0,0,1,3156,-1023)" stroke="rgb(255,204,0)">
      <rect x="-3014.514" width="126" height="39" y="1144.5858" clip-path="url(#clipPath2)" stroke="none"/>
    </g>
    <g text-rendering="geometricPrecision" stroke-miterlimit="1.45" shape-rendering="geometricPrecision" font-family="sans-serif" transform="matrix(1,0,0,1,3156,-1023)" stroke-linecap="butt">
      <text x="-3006.5774" xml:space="preserve" y="1168.621" clip-path="url(#clipPath2)" stroke="none">BooleanConnective</text>
      <rect fill="none" x="-3014.514" width="126" height="39" y="1144.5858" clip-path="url(#clipPath2)"/>
    </g>
    <g fill="rgb(255,204,0)" text-rendering="geometricPrecision" shape-rendering="geometricPrecision" transform="matrix(1,0,0,1,3156,-1023)" stroke="rgb(255,204,0)">
      <rect x="-2812.014" width="126" height="39" y="1217.8787" clip-path="url(#clipPath2)" stroke="none"/>
    </g>
    <g text-rendering="geometricPrecision" stroke-miterlimit="1.45" shape-rendering="geometricPrecision" font-family="sans-serif" transform="matrix(1,0,0,1,3156,-1023)" stroke-linecap="butt">
      <text x="-2796.5569" xml:space="preserve" y="1241.9139" clip-path="url(#clipPath2)" stroke="none">SelectionCriteria</text>
      <rect fill="none" x="-2812.014" width="126" height="39" y="1217.8787" clip-path="url(#clipPath2)"/>
    </g>
    <g fill="rgb(255,204,0)" text-rendering="geometricPrecision" shape-rendering="geometricPrecision" transform="matrix(1,0,0,1,3156,-1023)" stroke="rgb(255,204,0)">
      <rect x="-3014.514" width="126" height="39" y="1360.1717" clip-path="url(#clipPath2)" stroke="none"/>
    </g>
    <g text-rendering="geometricPrecision" stroke-miterlimit="1.45" shape-rendering="geometricPrecision" font-family="sans-serif" transform="matrix(1,0,0,1,3156,-1023)" stroke-linecap="butt">
      <text x="-2992.8987" xml:space="preserve" y="1384.2068" clip-path="url(#clipPath2)" stroke="none">BinaryRelation</text>
      <rect fill="none" x="-3014.514" width="126" height="39" y="1360.1717" clip-path="url(#clipPath2)"/>
    </g>
    <g fill="rgb(255,204,0)" text-rendering="geometricPrecision" shape-rendering="geometricPrecision" transform="matrix(1,0,0,1,3156,-1023)" stroke="rgb(255,204,0)">
      <rect x="-2812.014" width="126" height="39" y="1360.1717" clip-path="url(#clipPath2)" stroke="none"/>
    </g>
    <g text-rendering="geometricPrecision" stroke-miterlimit="1.45" shape-rendering="geometricPrecision" font-family="sans-serif" transform="matrix(1,0,0,1,3156,-1023)" stroke-linecap="butt">
      <text x="-2788.1399" xml:space="preserve" y="1384.2068" clip-path="url(#clipPath2)" stroke="none">PhysicalValue</text>
      <rect fill="none" x="-2812.014" width="126" height="39" y="1360.1717" clip-path="url(#clipPath2)"/>
    </g>
    <g fill="rgb(255,204,0)" text-rendering="geometricPrecision" shape-rendering="geometricPrecision" transform="matrix(1,0,0,1,3156,-1023)" stroke="rgb(255,204,0)">
      <rect x="-2609.514" width="126" height="39" y="1360.1717" clip-path="url(#clipPath2)" stroke="none"/>
    </g>
    <g text-rendering="geometricPrecision" stroke-miterlimit="1.45" shape-rendering="geometricPrecision" font-family="sans-serif" transform="matrix(1,0,0,1,3156,-1023)" stroke-linecap="butt">
      <text x="-2594.3821" xml:space="preserve" y="1384.2068" clip-path="url(#clipPath2)" stroke="none">PhysicalQuantity</text>
      <rect fill="none" x="-2609.514" width="126" height="39" y="1360.1717" clip-path="url(#clipPath2)"/>
    </g>
    <g fill="rgb(255,204,0)" text-rendering="geometricPrecision" shape-rendering="geometricPrecision" transform="matrix(1,0,0,1,3156,-1023)" stroke="rgb(255,204,0)">
      <rect x="-2618.514" width="144" height="39" y="1502.4646" clip-path="url(#clipPath2)" stroke="none"/>
    </g>
    <g text-rendering="geometricPrecision" stroke-miterlimit="1.45" shape-rendering="geometricPrecision" font-family="sans-serif" transform="matrix(1,0,0,1,3156,-1023)" stroke-linecap="butt">
      <text x="-2617.9456" xml:space="preserve" y="1526.4998" clip-path="url(#clipPath2)" stroke="none">FinalStateObjectProperty</text>
      <rect fill="none" x="-2618.514" width="144" height="39" y="1502.4646" clip-path="url(#clipPath2)"/>
      <path fill="none" d="M-2806.2422 1114.5858 L-2886.7131 1142.0056" clip-path="url(#clipPath2)"/>
      <path d="M-2894.2856 1144.5858 L-2881.3142 1145.4484 L-2885.7666 1141.6831 L-2884.5396 1135.9827 Z" clip-path="url(#clipPath2)" stroke="none"/>
      <rect x="-2964.8362" y="1097.0389" clip-path="url(#clipPath2)" fill="white" width="136.6445" height="32.2656" stroke="none"/>
      <text x="-2956.051" xml:space="preserve" y="1110.6404" clip-path="url(#clipPath2)" stroke="none">hasSelectionCriteria,</text>
      <text x="-2962.8362" xml:space="preserve" y="1124.7732" clip-path="url(#clipPath2)" stroke="none">vetoesSelectionCriteria</text>
      <path fill="none" d="M-2976.2288 1183.5867 L-2976.4958 1184.4468 L-2977.0139 1189.5858 L-2976.4958 1194.725 L-2975.01 1199.5116 L-2972.6589 1203.8431 L-2969.5452 1207.6171 L-2965.7712 1210.7308 L-2961.4397 1213.0819 L-2956.6531 1214.5677 L-2951.5139 1215.0858 L-2946.3748 1214.5677 L-2941.5881 1213.0819 L-2937.2566 1210.7308 L-2933.4827 1207.6171 L-2930.3689 1203.843 L-2928.0178 1199.5115 L-2926.532 1194.7249 L-2926.2134 1191.5651 L-2926.2263 1191.4659" clip-path="url(#clipPath2)"/>
      <path d="M-2926.8064 1183.4869 L-2930.9233 1195.8179 L-2926.1538 1192.4633 L-2920.9495 1195.0929 Z" clip-path="url(#clipPath2)" stroke="none"/>
      <text x="-2982.1445" xml:space="preserve" y="1228.0352" clip-path="url(#clipPath2)" stroke="none">hasOperand</text>
      <path fill="none" d="M-2897.6377 1183.5858 L-2810.4126 1215.1561" clip-path="url(#clipPath2)"/>
      <path d="M-2802.8901 1217.8788 L-2812.4722 1209.0933 L-2811.3528 1214.8158 L-2815.8755 1218.4963 Z" clip-path="url(#clipPath2)" stroke="none"/>
      <rect x="-2878.1445" y="1185.4336" clip-path="url(#clipPath2)" fill="white" width="74.2891" height="18.1328" stroke="none"/>
      <text x="-2876.1445" xml:space="preserve" y="1199.0352" clip-path="url(#clipPath2)" stroke="none">hasOperand</text>
      <path fill="none" d="M-2776.7649 1256.8788 L-2917.2175 1355.5721" clip-path="url(#clipPath2)"/>
      <path d="M-2923.7632 1360.1716 L-2911.0701 1357.3634 L-2916.3994 1354.9972 L-2916.8193 1349.1814 Z" clip-path="url(#clipPath2)" stroke="none"/>
      <rect x="-2926.5684" y="1313.4336" clip-path="url(#clipPath2)" fill="white" width="113.1367" height="18.1328" stroke="none"/>
      <text x="-2924.5684" xml:space="preserve" y="1327.0352" clip-path="url(#clipPath2)" stroke="none">usesBinaryRelation</text>
      <path fill="none" d="M-2749.0139 1256.8788 L-2749.0139 1352.1716" clip-path="url(#clipPath2)"/>
      <path d="M-2749.0139 1360.1716 L-2744.0139 1348.1716 L-2749.0139 1351.1716 L-2754.0139 1348.1716 Z" clip-path="url(#clipPath2)" stroke="none"/>
      <rect x="-2800.7764" y="1295.4336" clip-path="url(#clipPath2)" fill="white" width="107.5527" height="18.1328" stroke="none"/>
      <text x="-2798.7764" xml:space="preserve" y="1309.0352" clip-path="url(#clipPath2)" stroke="none">hasFirstArgument</text>
      <path fill="none" d="M-2721.2632 1256.8788 L-2580.8103 1355.5721" clip-path="url(#clipPath2)"/>
      <path d="M-2574.2649 1360.1718 L-2581.2085 1349.1814 L-2581.6287 1354.9972 L-2586.958 1357.3634 Z" clip-path="url(#clipPath2)" stroke="none"/>
      <rect x="-2696.4004" y="1320.9336" clip-path="url(#clipPath2)" fill="white" width="123.8008" height="18.1328" stroke="none"/>
      <text x="-2694.4004" xml:space="preserve" y="1334.5352" clip-path="url(#clipPath2)" stroke="none">hasSecondArgument</text>
    </g>
    <g text-rendering="geometricPrecision" stroke-miterlimit="1.45" shape-rendering="geometricPrecision" transform="matrix(1,0,0,1,3156,-1023)" stroke-linecap="butt">
      <path fill="none" d="M-2671.0139 1373.4216 L-2686.0139 1379.6716 L-2671.0139 1385.9216 L-2673.864 1381.1716 L-2609.5139 1381.1716 L-2609.5139 1378.1716 L-2673.864 1378.1716 L-2671.0139 1373.4216 Z" clip-path="url(#clipPath2)"/>
      <rect x="-2656.4466" y="1357.1053" clip-path="url(#clipPath2)" fill="white" width="21.8652" height="18.1328" stroke="none" stroke-width="3"/>
      <text x="-2654.4465" xml:space="preserve" y="1370.7068" clip-path="url(#clipPath2)" font-family="sans-serif" stroke="none">isA</text>
    </g>
    <g text-rendering="geometricPrecision" stroke-miterlimit="1.45" shape-rendering="geometricPrecision" transform="matrix(1,0,0,1,3156,-1023)" stroke-linecap="butt">
      <path fill="none" d="M-2546.5139 1399.1716 L-2546.5139 1494.4646" clip-path="url(#clipPath2)"/>
      <path d="M-2546.5139 1502.4646 L-2541.5139 1490.4646 L-2546.5139 1493.4646 L-2551.5139 1490.4646 Z" clip-path="url(#clipPath2)" stroke="none"/>
      <rect x="-2644.7715" y="1440.4336" clip-path="url(#clipPath2)" fill="white" width="195.543" height="18.1328" stroke="none"/>
      <text x="-2642.7715" xml:space="preserve" y="1454.0352" clip-path="url(#clipPath2)" font-family="sans-serif" stroke="none">refersToFinalStateObjectProperty</text>
    </g>
    <g fill="rgb(245,245,245)" text-rendering="geometricPrecision" shape-rendering="geometricPrecision" transform="matrix(1,0,0,1,3156,-1023)" stroke="rgb(245,245,245)">
      <rect x="-3029.514" y="1465.7986" clip-path="url(#clipPath2)" width="358.5" rx="4" ry="4" height="178.166" stroke="none"/>
      <rect x="-3029.514" y="1465.7986" clip-path="url(#clipPath2)" fill="rgb(235,235,235)" width="358.5" height="21.666" stroke="none"/>
    </g>
    <g font-size="15px" stroke-linecap="butt" transform="matrix(1,0,0,1,3156,-1023)" text-rendering="geometricPrecision" font-family="sans-serif" shape-rendering="geometricPrecision" stroke-miterlimit="1.45">
      <text x="-2734.9622" xml:space="preserve" y="1482.3005" clip-path="url(#clipPath2)" stroke="none">Quantity</text>
      <rect x="-3029.514" y="1465.7986" clip-path="url(#clipPath2)" fill="none" width="358.5" stroke-dasharray="6,2" rx="4" ry="4" height="178.166"/>
    </g>
    <g fill="aqua" text-rendering="geometricPrecision" shape-rendering="geometricPrecision" transform="matrix(1,0,0,1,3156,-1023)" stroke="aqua">
      <rect x="-2812.014" width="126" height="39" y="1502.4646" clip-path="url(#clipPath2)" stroke="none"/>
    </g>
    <g text-rendering="geometricPrecision" stroke-miterlimit="1.45" shape-rendering="geometricPrecision" font-family="sans-serif" transform="matrix(1,0,0,1,3156,-1023)" stroke-linecap="butt">
      <text x="-2773.7932" xml:space="preserve" y="1526.4998" clip-path="url(#clipPath2)" stroke="none">Quantity</text>
      <rect fill="none" x="-2812.014" width="126" height="39" y="1502.4646" clip-path="url(#clipPath2)"/>
    </g>
    <g fill="rgb(255,204,0)" text-rendering="geometricPrecision" shape-rendering="geometricPrecision" transform="matrix(1,0,0,1,3156,-1023)" stroke="rgb(255,204,0)">
      <rect x="-3014.514" width="126" height="39" y="1502.4646" clip-path="url(#clipPath2)" stroke="none"/>
    </g>
    <g text-rendering="geometricPrecision" stroke-miterlimit="1.45" shape-rendering="geometricPrecision" font-family="sans-serif" transform="matrix(1,0,0,1,3156,-1023)" stroke-linecap="butt">
      <text x="-2963.3733" xml:space="preserve" y="1526.4998" clip-path="url(#clipPath2)" stroke="none">Unit</text>
      <rect fill="none" x="-3014.514" width="126" height="39" y="1502.4646" clip-path="url(#clipPath2)"/>
    </g>
    <g fill="rgb(255,204,0)" text-rendering="geometricPrecision" shape-rendering="geometricPrecision" transform="matrix(1,0,0,1,3156,-1023)" stroke="rgb(255,204,0)">
      <rect x="-2812.014" width="126" height="39" y="1589.9646" clip-path="url(#clipPath2)" stroke="none"/>
    </g>
    <g text-rendering="geometricPrecision" stroke-miterlimit="1.45" shape-rendering="geometricPrecision" font-family="sans-serif" transform="matrix(1,0,0,1,3156,-1023)" stroke-linecap="butt">
      <text x="-2781.4661" xml:space="preserve" y="1613.9998" clip-path="url(#clipPath2)" stroke="none">xsd:double</text>
      <rect fill="none" x="-2812.014" width="126" height="39" y="1589.9646" clip-path="url(#clipPath2)"/>
      <path fill="none" d="M-2749.0139 1399.1716 L-2749.0139 1494.4646" clip-path="url(#clipPath2)"/>
      <path d="M-2749.0139 1502.4646 L-2744.0139 1490.4646 L-2749.0139 1493.4646 L-2754.0139 1490.4646 Z" clip-path="url(#clipPath2)" stroke="none"/>
      <rect x="-2817.2861" y="1422.4336" clip-path="url(#clipPath2)" fill="white" width="132.5723" height="18.1328" stroke="none"/>
      <text x="-2815.2861" xml:space="preserve" y="1436.0352" clip-path="url(#clipPath2)" stroke="none">hasNumericalQuantity</text>
      <path fill="none" d="M-2812.0132 1521.9646 L-2880.5139 1521.9646" clip-path="url(#clipPath2)"/>
      <path d="M-2888.5139 1521.9646 L-2876.5139 1526.9646 L-2879.5139 1521.9646 L-2876.5139 1516.9646 Z" clip-path="url(#clipPath2)" stroke="none"/>
      <text x="-2873.9551" xml:space="preserve" y="1517.0352" clip-path="url(#clipPath2)" stroke="none">hasUnit</text>
      <path fill="none" d="M-2749.0139 1541.4646 L-2749.0139 1581.9646" clip-path="url(#clipPath2)"/>
      <path d="M-2749.0139 1589.9646 L-2744.0139 1577.9646 L-2749.0139 1580.9646 L-2754.0139 1577.9646 Z" clip-path="url(#clipPath2)" stroke="none"/>
      <rect x="-2748.4277" y="1553.4336" clip-path="url(#clipPath2)" fill="white" width="70.8555" height="18.1328" stroke="none"/>
      <text x="-2746.4277" xml:space="preserve" y="1567.0352" clip-path="url(#clipPath2)" stroke="none">hasNumber</text>
    </g>
    <g fill="rgb(245,245,245)" text-rendering="geometricPrecision" shape-rendering="geometricPrecision" transform="matrix(1,0,0,1,3156,-1023)" stroke="rgb(245,245,245)">
      <rect x="-2624.514" y="1038.9198" clip-path="url(#clipPath2)" width="367.5" rx="4" ry="4" height="239.3125" stroke="none"/>
      <rect x="-2624.514" y="1038.9198" clip-path="url(#clipPath2)" fill="rgb(235,235,235)" width="367.5" height="21.666" stroke="none"/>
    </g>
    <g font-size="15px" stroke-linecap="butt" transform="matrix(1,0,0,1,3156,-1023)" text-rendering="geometricPrecision" font-family="sans-serif" shape-rendering="geometricPrecision" stroke-miterlimit="1.45">
      <text x="-2376.5676" xml:space="preserve" y="1055.4218" clip-path="url(#clipPath2)" stroke="none">FinalStateObject</text>
      <rect x="-2624.514" y="1038.9198" clip-path="url(#clipPath2)" fill="none" width="367.5" stroke-dasharray="6,2" rx="4" ry="4" height="239.3125"/>
    </g>
    <g fill="rgb(255,204,0)" text-rendering="geometricPrecision" shape-rendering="geometricPrecision" transform="matrix(1,0,0,1,3156,-1023)" stroke="rgb(255,204,0)">
      <rect x="-2609.514" width="126" height="39" y="1217.8787" clip-path="url(#clipPath2)" stroke="none"/>
    </g>
    <g text-rendering="geometricPrecision" stroke-miterlimit="1.45" shape-rendering="geometricPrecision" font-family="sans-serif" transform="matrix(1,0,0,1,3156,-1023)" stroke-linecap="butt">
      <text x="-2593.5354" xml:space="preserve" y="1241.9139" clip-path="url(#clipPath2)" stroke="none">FinalStateObject</text>
      <rect fill="none" x="-2609.514" width="126" height="39" y="1217.8787" clip-path="url(#clipPath2)"/>
    </g>
    <g fill="rgb(255,204,0)" text-rendering="geometricPrecision" shape-rendering="geometricPrecision" transform="matrix(1,0,0,1,3156,-1023)" stroke="rgb(255,204,0)">
      <rect x="-2415.514" width="126" height="39" y="1217.8787" clip-path="url(#clipPath2)" stroke="none"/>
    </g>
    <g text-rendering="geometricPrecision" stroke-miterlimit="1.45" shape-rendering="geometricPrecision" font-family="sans-serif" transform="matrix(1,0,0,1,3156,-1023)" stroke-linecap="butt">
      <text x="-2407.6858" xml:space="preserve" y="1241.9139" clip-path="url(#clipPath2)" stroke="none">EventLevelQuantity</text>
      <rect fill="none" x="-2415.514" width="126" height="39" y="1217.8787" clip-path="url(#clipPath2)"/>
    </g>
    <g fill="rgb(255,204,0)" text-rendering="geometricPrecision" shape-rendering="geometricPrecision" transform="matrix(1,0,0,1,3156,-1023)" stroke="rgb(255,204,0)">
      <rect x="-2415.514" width="126" height="39" y="1075.5858" clip-path="url(#clipPath2)" stroke="none"/>
    </g>
    <g text-rendering="geometricPrecision" stroke-miterlimit="1.45" shape-rendering="geometricPrecision" font-family="sans-serif" transform="matrix(1,0,0,1,3156,-1023)" stroke-linecap="butt">
      <text x="-2392.5364" xml:space="preserve" y="1099.621" clip-path="url(#clipPath2)" stroke="none">PhysicsObject</text>
      <rect fill="none" x="-2415.514" width="126" height="39" y="1075.5858" clip-path="url(#clipPath2)"/>
    </g>
    <g fill="rgb(255,204,0)" text-rendering="geometricPrecision" shape-rendering="geometricPrecision" transform="matrix(1,0,0,1,3156,-1023)" stroke="rgb(255,204,0)">
      <rect x="-2609.514" width="126" height="39" y="1075.5858" clip-path="url(#clipPath2)" stroke="none"/>
    </g>
    <g text-rendering="geometricPrecision" stroke-miterlimit="1.45" shape-rendering="geometricPrecision" font-family="sans-serif" transform="matrix(1,0,0,1,3156,-1023)" stroke-linecap="butt">
      <text x="-2588.303" xml:space="preserve" y="1099.621" clip-path="url(#clipPath2)" stroke="none">BaseDefinition</text>
      <rect fill="none" x="-2609.514" width="126" height="39" y="1075.5858" clip-path="url(#clipPath2)"/>
    </g>
    <g fill="rgb(255,204,0)" text-rendering="geometricPrecision" shape-rendering="geometricPrecision" transform="matrix(1,0,0,1,3156,-1023)" stroke="rgb(255,204,0)">
      <rect x="-3140.264" width="126" height="39" y="1075.5858" clip-path="url(#clipPath2)" stroke="none"/>
    </g>
    <g text-rendering="geometricPrecision" stroke-miterlimit="1.45" shape-rendering="geometricPrecision" font-family="sans-serif" transform="matrix(1,0,0,1,3156,-1023)" stroke-linecap="butt">
      <text x="-3090.3303" xml:space="preserve" y="1099.621" clip-path="url(#clipPath2)" stroke="none">AND</text>
      <rect fill="none" x="-3140.264" width="126" height="39" y="1075.5858" clip-path="url(#clipPath2)"/>
    </g>
    <g fill="rgb(255,204,0)" text-rendering="geometricPrecision" shape-rendering="geometricPrecision" transform="matrix(1,0,0,1,3156,-1023)" stroke="rgb(255,204,0)">
      <rect x="-3140.264" width="126" height="39" y="1217.8787" clip-path="url(#clipPath2)" stroke="none"/>
    </g>
    <g text-rendering="geometricPrecision" stroke-miterlimit="1.45" shape-rendering="geometricPrecision" font-family="sans-serif" transform="matrix(1,0,0,1,3156,-1023)" stroke-linecap="butt">
      <text x="-3085.719" xml:space="preserve" y="1241.9139" clip-path="url(#clipPath2)" stroke="none">OR</text>
      <rect fill="none" x="-3140.264" width="126" height="39" y="1217.8787" clip-path="url(#clipPath2)"/>
      <path fill="none" d="M-2721.2632 1114.5858 L-2580.8103 1213.2793" clip-path="url(#clipPath2)"/>
      <path d="M-2574.2649 1217.8789 L-2581.2085 1206.8885 L-2581.6287 1212.7043 L-2586.958 1215.0706 Z" clip-path="url(#clipPath2)" stroke="none"/>
      <rect x="-2731.2627" y="1137.4336" clip-path="url(#clipPath2)" fill="white" width="90.5254" height="18.1328" stroke="none"/>
      <text x="-2729.2627" xml:space="preserve" y="1151.0352" clip-path="url(#clipPath2)" stroke="none">refersToObject</text>
      <path fill="none" d="M-2546.5139 1360.1716 L-2546.5139 1264.8788" clip-path="url(#clipPath2)"/>
      <path d="M-2546.5139 1256.8788 L-2551.5139 1268.8788 L-2546.5139 1265.8788 L-2541.5139 1268.8788 Z" clip-path="url(#clipPath2)" stroke="none"/>
      <rect x="-2591.485" y="1295.1873" clip-path="url(#clipPath2)" fill="white" width="90.5254" height="18.1328" stroke="none"/>
      <text x="-2589.4851" xml:space="preserve" y="1308.7889" clip-path="url(#clipPath2)" stroke="none">refersToObject</text>
    </g>
    <g text-rendering="geometricPrecision" stroke-miterlimit="1.45" shape-rendering="geometricPrecision" transform="matrix(1,0,0,1,3156,-1023)" stroke-linecap="butt">
      <path fill="none" d="M-2468.5139 1231.1288 L-2483.5139 1237.3788 L-2468.5139 1243.6288 L-2471.364 1238.8788 L-2415.5139 1238.8788 L-2415.5139 1235.8788 L-2471.364 1235.8788 L-2468.5139 1231.1288 Z" clip-path="url(#clipPath2)"/>
      <rect x="-2455.9326" y="1216.4336" clip-path="url(#clipPath2)" fill="white" width="21.8652" height="18.1328" stroke="none" stroke-width="3"/>
      <text x="-2453.9326" xml:space="preserve" y="1230.0352" clip-path="url(#clipPath2)" font-family="sans-serif" stroke="none">isA</text>
    </g>
    <g text-rendering="geometricPrecision" stroke-miterlimit="1.45" shape-rendering="geometricPrecision" transform="matrix(1,0,0,1,3156,-1023)" stroke-linecap="butt">
      <path fill="none" d="M-2379.9878 1113.377 L-2511.0181 1209.4834 L-2511.0181 1209.4834 L-2511.5293 1203.9675 L-2519.928 1217.8788 L-2504.1362 1214.0469 L-2509.2437 1211.9022 L-2509.2437 1211.9022 L-2378.2119 1115.7947 L-2379.9878 1113.377 Z" clip-path="url(#clipPath2)"/>
      <rect x="-2450.5076" y="1146.3862" clip-path="url(#clipPath2)" fill="white" width="21.8652" height="18.1328" stroke="none" stroke-width="3"/>
      <text x="-2448.5076" xml:space="preserve" y="1159.9878" clip-path="url(#clipPath2)" font-family="sans-serif" stroke="none">isA</text>
    </g>
    <g text-rendering="geometricPrecision" stroke-miterlimit="1.45" shape-rendering="geometricPrecision" transform="matrix(1,0,0,1,3156,-1023)" stroke-linecap="butt">
      <path fill="none" d="M-2546.5139 1217.8788 L-2546.5139 1122.5858" clip-path="url(#clipPath2)"/>
      <path d="M-2546.5139 1114.5858 L-2551.5139 1126.5858 L-2546.5139 1123.5858 L-2541.5139 1126.5858 Z" clip-path="url(#clipPath2)" stroke="none"/>
      <rect x="-2597.8848" y="1157.4336" clip-path="url(#clipPath2)" fill="white" width="107.7695" height="18.1328" stroke="none"/>
      <text x="-2595.8848" xml:space="preserve" y="1171.0352" clip-path="url(#clipPath2)" font-family="sans-serif" stroke="none">hasBaseDefinition</text>
    </g>
    <g text-rendering="geometricPrecision" stroke-miterlimit="1.45" shape-rendering="geometricPrecision" transform="matrix(1,0,0,1,3156,-1023)" stroke-linecap="butt">
      <path fill="none" d="M-3014.4521 1113.8083 L-3016.9893 1115.4094 L-3004.5408 1135.1194 L-3004.5408 1135.1194 L-3010.0786 1135.2463 L-2996.7844 1144.5911 L-2999.5103 1128.5713 L-3002.0044 1133.5175 L-3014.4521 1113.8083 Z" clip-path="url(#clipPath2)"/>
      <text x="-3032.9326" xml:space="preserve" y="1132.0352" clip-path="url(#clipPath2)" font-family="sans-serif" stroke="none">isA</text>
    </g>
    <g text-rendering="geometricPrecision" stroke-miterlimit="1.45" shape-rendering="geometricPrecision" transform="matrix(1,0,0,1,3156,-1023)" stroke-linecap="butt">
      <path fill="none" d="M-2995.1396 1183.5743 L-3008.5139 1192.8044 L-3002.9771 1192.9789 L-3002.9771 1192.9789 L-3018.4739 1217.0543 L-3015.9519 1218.6786 L-3000.4546 1194.6025 L-2998.0032 1199.5701 L-2995.1396 1183.5743 Z" clip-path="url(#clipPath2)"/>
      <text x="-3031.9326" xml:space="preserve" y="1205.0352" clip-path="url(#clipPath2)" font-family="sans-serif" stroke="none">isA</text>
    </g>
  </g>
</svg>
